<?xml version="1.0" encoding="utf-8"?>
<!DOCTYPE svg PUBLIC "-//W3C//DTD SVG 1.1//EN" "http://www.w3.org/Graphics/SVG/1.1/DTD/svg11.dtd">
<svg style="width:308px;height:308px;" version="1.1" id="图形" xmlns="http://www.w3.org/2000/svg" xmlns:xlink="http://www.w3.org/1999/xlink" x="0px" y="0px" width="1024px" height="1024px" viewBox="0 0 1024 1024" enable-background="new 0 0 1024 1024" xml:space="preserve">
  <path class="svgpath" data-index="path_0" fill="#666" d="M972.8 716.8c-28.077419 0-51.2 23.122581-51.2 51.2l0 153.6L102.4 921.6l0-153.6c0-28.077419-23.122581-51.2-51.2-51.2-28.077419 0-51.2 23.122581-51.2 51.2l0 204.8C0 1000.877419 23.122581 1024 51.2 1024c0 0 1.651613 0 1.651613 0 0 0 1.651613 0 1.651613 0l914.993548 0c0 0 1.651613 0 1.651613 0 0 0 1.651613 0 1.651613 0 28.077419 0 51.2-23.122581 51.2-51.2L1024 768C1024 739.922581 1000.877419 716.8 972.8 716.8z" />
<path class="svgpath" data-index="path_1" fill="#666" d="M853.883871 444.283871 614.4 444.283871 614.4 67.716129c0 0-9.909677-67.716129-67.716129-67.716129-57.806452 0-1.651613 0-67.716129 0-64.412903 0-67.716129 67.716129-67.716129 67.716129l0 374.916129L170.116129 442.632258 512 784.516129 853.883871 444.283871z" />

</svg>
