<?xml version="1.0" encoding="utf-8"?>
<!DOCTYPE svg PUBLIC "-//W3C//DTD SVG 1.1//EN" "http://www.w3.org/Graphics/SVG/1.1/DTD/svg11.dtd">
<svg style="width:308px;height:308px;" version="1.1" id="图形" xmlns="http://www.w3.org/2000/svg" xmlns:xlink="http://www.w3.org/1999/xlink" x="0px" y="0px" width="1150px" height="1024px" viewBox="0 0 1150 1024" enable-background="new 0 0 1150 1024" xml:space="preserve">
  <path class="svgpath" data-index="path_0" fill="#666" d="M1138.587189 476.048601 1004.257717 613.271546c-10.995196 10.850523-28.862391 10.850523-40.002261 0l-133.389093-137.222944C815.096937 457.241029 825.73045 450.513704 836.725646 439.663182l86.153151 0C889.748534 274.590562 745.581255 150.315908 572.696259 150.315908 438.800809 150.315908 322.338531 224.895168 261.069246 335.064142L126.812111 282.83696C209.493095 118.487708 377.893208 5.642272 572.696259 5.642272c252.021475 0 459.917491 188.726759 494.7115 434.02091l65.392484 0C1143.79544 450.513704 1149.582385 465.198079 1138.587189 476.048601zM181.354072 446.896864l134.257135 137.222944C326.67874 594.970331 320.891795 609.654705 309.896598 620.505227L231.628161 620.505227c45.572196 146.699068 180.986719 253.178864 341.068098 253.178864 121.453518 0 228.584346-61.413959 293.181125-155.162475l135.26985 54.035603C913.547347 919.690308 754.695694 1018.357728 572.696259 1018.357728c-248.693981 0-454.492229-183.301498-493.264764-397.852501L13.822001 620.505227c-10.995196-10.850523-21.628709-17.577847-5.786945-36.38542L141.424149 446.896864C152.419345 436.046341 170.358876 436.046341 181.354072 446.896864z" />

</svg>
